<svg xmlns="http://www.w3.org/2000/svg" width="246.72" height="149.674" viewBox="0 0 246.72 149.674"><g transform="translate(-853 -429.836)"><path d="M133.7,35.36l-.13,91.4h9.32v56.71H117.35V154.74H67.81v28.73H42.28V126.76h8.04q2.175-2.685,4.09-11.02a164.282,164.282,0,0,0,3-20.99q1.08-12.36,1.09-22.78V35.65ZM85.31,80.16a171.936,171.936,0,0,1-2.17,26.35,88.72,88.72,0,0,1-4.98,20.25h29.88V63.34H85.31Z" transform="translate(810.72 395.51)"/><path d="M221.78,93.24l-10.05,20.99H192.61V184H171.74V114.23H148.36V93.24Z" transform="translate(810.72 395.51)"/><g transform="translate(810.72 395.51)"><path d="M288.96,92.67q.015,10.59.04,21.18c-20.36-.43-35.28-.4-38.19,0a12.814,12.814,0,0,0-3.37.97,16.852,16.852,0,0,0-3.48,2.52,21.343,21.343,0,0,0-2.93,3.38,11.336,11.336,0,0,0-1.71,3.44c-1.32,4.81-1.99,7.79-1.99,8.94q0,29.34,16.12,29.34H289v21.18H251.66a20.624,20.624,0,0,1-3.34-.45c-1.57-.3-3.6-.76-6.08-1.36a23.693,23.693,0,0,1-8.82-4.09,38.247,38.247,0,0,1-7.56-7.33,44.277,44.277,0,0,1-5.64-9.44,37,37,0,0,1-2.96-10.52,103.181,103.181,0,0,1-.99-11.82,59.476,59.476,0,0,1,2.79-18.7,43.124,43.124,0,0,1,7.88-14.5,35.7,35.7,0,0,1,12.21-9.38,36.869,36.869,0,0,1,15.88-3.35h33.93Z"/></g><g transform="translate(965.652 430.336)"><line y1="0.228" x2="61.419" transform="translate(0 0)" fill="none" stroke="#000" stroke-miterlimit="10" stroke-width="1"/></g><g transform="translate(960.912 457.18)"><line x2="25.855" fill="none" stroke="#000" stroke-miterlimit="10" stroke-width="1"/></g><g transform="translate(957.87 450.868)"><line x2="28.897" transform="translate(0)" fill="none" stroke="#000" stroke-miterlimit="10" stroke-width="1"/></g><g transform="translate(963.954 446.128)"><line x2="22.814" transform="translate(0)" fill="none" stroke="#000" stroke-miterlimit="10" stroke-width="1"/></g><g transform="translate(1036.196 430.336)"><rect width="54.752" height="42.636" transform="translate(0 0)" fill="none" stroke="#000" stroke-miterlimit="10" stroke-width="1"/></g><g transform="translate(1090.949 430.336)"><rect width="6.084" height="42.636" transform="translate(0 0)" stroke="#000" stroke-miterlimit="10" stroke-width="1"/></g><g transform="translate(1086.386 435.862)"><line y2="33.168" transform="translate(0 0)" fill="none" stroke="#000" stroke-miterlimit="10" stroke-width="1"/></g><g transform="translate(1080.302 435.862)"><line y2="33.168" transform="translate(0 0)" fill="none" stroke="#000" stroke-miterlimit="10" stroke-width="1"/></g><g transform="translate(1072.698 435.862)"><line y2="33.168" transform="translate(0 0)" fill="none" stroke="#000" stroke-miterlimit="10" stroke-width="1"/></g><g transform="translate(1066.614 435.862)"><line y2="33.168" transform="translate(0 0)" fill="none" stroke="#000" stroke-miterlimit="10" stroke-width="1"/></g><g transform="translate(1059.01 435.862)"><line y2="33.168" transform="translate(0 0)" fill="none" stroke="#000" stroke-miterlimit="10" stroke-width="1"/></g><g transform="translate(1052.926 435.862)"><line y2="33.168" transform="translate(0 0)" fill="none" stroke="#000" stroke-miterlimit="10" stroke-width="1"/></g><g transform="translate(1046.843 435.862)"><line y2="33.168" transform="translate(0 0)" fill="none" stroke="#000" stroke-miterlimit="10" stroke-width="1"/></g><g transform="translate(966.995 439.817)"><line x2="19.772" transform="translate(0)" fill="none" stroke="#000" stroke-miterlimit="10" stroke-width="1"/></g><g transform="translate(973.079 435.076)"><line x2="13.688" transform="translate(0)" fill="none" stroke="#000" stroke-miterlimit="10" stroke-width="1"/></g><g transform="translate(971.558 468.232)"><line x2="15.209" transform="translate(0)" fill="none" stroke="#000" stroke-miterlimit="10" stroke-width="1"/></g><g transform="translate(966.995 461.92)"><line x2="19.772" transform="translate(0)" fill="none" stroke="#000" stroke-miterlimit="10" stroke-width="1"/></g><g transform="translate(1020.987 430.336)"><rect width="6.084" height="42.636" transform="translate(0 0)" stroke="#000" stroke-miterlimit="10" stroke-width="1"/></g><g transform="translate(1036.196 472.972)"><path d="M281.786,74.61H220.95v4.74h3.194a3.326,3.326,0,0,0,2.091,4.056,3.163,3.163,0,0,0,4.005-2.155,3.467,3.467,0,0,0,.025-1.9h4.525a3.326,3.326,0,0,0,2.091,4.056,3.163,3.163,0,0,0,4.005-2.155,3.467,3.467,0,0,0,.025-1.9h19.734a3.326,3.326,0,0,0,2.091,4.056,3.163,3.163,0,0,0,4.005-2.155,3.467,3.467,0,0,0,.025-1.9h4.525a3.326,3.326,0,0,0,2.091,4.056,3.162,3.162,0,0,0,4.005-2.155,3.467,3.467,0,0,0,.025-1.9h4.373Z" transform="translate(-220.95 -74.61)" stroke="#000" stroke-miterlimit="10" stroke-width="1"/></g><g transform="translate(960.151 484.011)"><line y1="0.013" x2="139.162" transform="translate(0 0)" fill="none" stroke="#000" stroke-miterlimit="10" stroke-width="1"/></g><g transform="translate(971.558 487.18)"><line x2="114.068" transform="translate(0)" fill="none" stroke="#000" stroke-miterlimit="10" stroke-width="1"/></g><g transform="translate(1026.311 466.66)"><line x2="9.125" transform="translate(0)" fill="none" stroke="#000" stroke-miterlimit="10" stroke-width="1"/></g><g transform="translate(1026.311 472.972)"><line x2="9.125" transform="translate(0)" fill="none" stroke="#000" stroke-miterlimit="10" stroke-width="1"/></g><g transform="translate(966.235 472.972)"><path d="M226.586,74.61H165.75v4.74h3.194a3.326,3.326,0,0,0,2.091,4.056,3.162,3.162,0,0,0,4.005-2.155,3.467,3.467,0,0,0,.025-1.9h4.525a3.326,3.326,0,0,0,2.091,4.056,3.163,3.163,0,0,0,4.005-2.155,3.468,3.468,0,0,0,.025-1.9h19.734a3.326,3.326,0,0,0,2.091,4.056,3.163,3.163,0,0,0,4.005-2.155,3.468,3.468,0,0,0,.025-1.9h4.525a3.326,3.326,0,0,0,2.091,4.056,3.163,3.163,0,0,0,4.005-2.155,3.468,3.468,0,0,0,.025-1.9h4.373V74.61Z" transform="translate(-165.75 -74.61)" stroke="#000" stroke-miterlimit="10" stroke-width="1"/></g></g></svg>