<svg xmlns="http://www.w3.org/2000/svg" width="356.08" height="180.25" viewBox="0 0 356.08 180.25"><g transform="translate(-36.93 -38.66)"><path d="M64.46,208.46h3.13V190.07a3.853,3.853,0,0,1,.58-2.07,5.571,5.571,0,0,1,1.56-1.66,7.939,7.939,0,0,1,2.26-1.11,9.2,9.2,0,0,1,2.71-.4H88.02v23.62h3.13v10.46H83.2v-4.72H72.41v4.72H64.46V208.46Zm11.08,0h4.52V190.37H75.54Z"/><path d="M93.91,188a5.571,5.571,0,0,1,1.56-1.66,7.939,7.939,0,0,1,2.26-1.11,9.2,9.2,0,0,1,2.71-.4h6.24a8.958,8.958,0,0,1,2.7.4,7.335,7.335,0,0,1,2.26,1.11,5.8,5.8,0,0,1,1.55,1.66,3.942,3.942,0,0,1,.58,2.07v24.12h-7.95V203.85H101.3v10.34H93.35V190.07A3.835,3.835,0,0,1,93.91,188Zm11.89,10.17v-7.6h-4.52v7.6Z"/><path d="M120.06,208.46V190.07a3.853,3.853,0,0,1,.58-2.07,5.571,5.571,0,0,1,1.56-1.66,7.939,7.939,0,0,1,2.26-1.11,9.2,9.2,0,0,1,2.71-.4h13.32v29.36h-7.95V190.37h-4.52v18.58a3.965,3.965,0,0,1-.59,2.1,5.555,5.555,0,0,1-1.56,1.65,7.777,7.777,0,0,1-2.26,1.09,9.284,9.284,0,0,1-2.7.4h-5.03v-5.73h4.18Z"/><path d="M142.65,184.83h7.95v10.92h5.39a9.059,9.059,0,0,1,2.66.39,7.885,7.885,0,0,1,2.26,1.08,5.592,5.592,0,0,1,1.57,1.65,3.921,3.921,0,0,1,.59,2.08v8a3.834,3.834,0,0,1-.59,2.08,5.711,5.711,0,0,1-1.56,1.66,7.86,7.86,0,0,1-2.25,1.1,9.166,9.166,0,0,1-2.69.4H142.64V184.83Zm12.47,23.83v-7.02H150.6v7.02Z"/><path d="M185.62,190.53H179.4v23.66h-7.95V190.53h-6.24v-5.7h20.42v5.7Z"/><path d="M203.79,185.23a7.335,7.335,0,0,1,2.26,1.11,5.626,5.626,0,0,1,1.54,1.66,3.933,3.933,0,0,1,.57,2.07v7.6a3.834,3.834,0,0,1-.59,2.08A5.467,5.467,0,0,1,206,201.4a7.885,7.885,0,0,1-2.26,1.08,9.059,9.059,0,0,1-2.66.39h-5.39v11.32h-7.95V184.83h13.34A9.352,9.352,0,0,1,203.79,185.23Zm-3.58,5.14h-4.52v6.62h4.52Z"/><path d="M210.87,188a5.571,5.571,0,0,1,1.56-1.66,7.939,7.939,0,0,1,2.26-1.11,9.251,9.251,0,0,1,2.71-.4h6.24a8.958,8.958,0,0,1,2.7.4,7.335,7.335,0,0,1,2.26,1.11,5.8,5.8,0,0,1,1.55,1.66,3.933,3.933,0,0,1,.57,2.07v24.12h-7.95V203.85h-4.52v10.34H210.3V190.07A3.933,3.933,0,0,1,210.87,188Zm11.89,10.17v-7.6h-4.52v7.6Z"/><path d="M240.79,184.83v11.76h4.52V184.83h7.95v29.36h-7.95V202.3h-4.52v11.89h-7.95V184.83Z"/><path d="M255.97,188a5.664,5.664,0,0,1,1.55-1.66,7.939,7.939,0,0,1,2.26-1.11,9.2,9.2,0,0,1,2.71-.4h6.25a8.959,8.959,0,0,1,2.7.4,7.335,7.335,0,0,1,2.26,1.11,5.626,5.626,0,0,1,1.54,1.66,3.933,3.933,0,0,1,.57,2.07v5.22h-7.95v-4.72h-4.52v17.89h4.52v-4.72h7.95v5.22a3.877,3.877,0,0,1-.59,2.1,5.649,5.649,0,0,1-1.55,1.65,7.842,7.842,0,0,1-2.25,1.09,9.149,9.149,0,0,1-2.68.4h-6.25a8.959,8.959,0,0,1-2.7-.4,7.778,7.778,0,0,1-2.26-1.09,5.685,5.685,0,0,1-1.56-1.65,3.965,3.965,0,0,1-.59-2.1V190.08A3.96,3.96,0,0,1,255.97,188Z"/><path d="M278.51,188a5.571,5.571,0,0,1,1.56-1.66,7.939,7.939,0,0,1,2.26-1.11,9.251,9.251,0,0,1,2.71-.4h6.24a8.959,8.959,0,0,1,2.7.4,7.335,7.335,0,0,1,2.26,1.11,5.8,5.8,0,0,1,1.55,1.66,3.933,3.933,0,0,1,.57,2.07v5.22h-7.95v-4.72h-4.52v17.89h4.52v-4.72h7.95v5.22a3.877,3.877,0,0,1-.59,2.1,5.556,5.556,0,0,1-1.56,1.65,7.842,7.842,0,0,1-2.25,1.09,9.166,9.166,0,0,1-2.69.4h-6.24a8.959,8.959,0,0,1-2.7-.4,7.778,7.778,0,0,1-2.26-1.09,5.685,5.685,0,0,1-1.56-1.65,3.964,3.964,0,0,1-.59-2.1V190.08A4.152,4.152,0,0,1,278.51,188Z"/><path d="M308.44,184.83v11.76h4.52V184.83h7.95v29.36h-7.95V202.3h-4.52v11.89h-7.95V184.83Z"/><path d="M323.61,188a5.571,5.571,0,0,1,1.56-1.66,7.939,7.939,0,0,1,2.26-1.11,9.251,9.251,0,0,1,2.71-.4h6.24a8.959,8.959,0,0,1,2.7.4,7.335,7.335,0,0,1,2.26,1.11,5.8,5.8,0,0,1,1.55,1.66,3.933,3.933,0,0,1,.57,2.07v24.12h-7.95V203.85h-4.52v10.34h-7.95V190.07A3.934,3.934,0,0,1,323.61,188Zm11.89,10.17v-7.6h-4.52v7.6Z"/><path d="M345.58,184.83h18.39v5.73H353.53v5.19h5.39a9.059,9.059,0,0,1,2.66.39,8.014,8.014,0,0,1,2.26,1.08,5.592,5.592,0,0,1,1.57,1.65,3.921,3.921,0,0,1,.59,2.08v8a3.834,3.834,0,0,1-.59,2.08,5.81,5.81,0,0,1-1.55,1.66,7.86,7.86,0,0,1-2.25,1.1,9.149,9.149,0,0,1-2.68.4H345.59V184.83Zm12.47,23.83v-7.02h-4.52v7.02Z"/><line y1="0.56" x2="156.89" transform="translate(56.81 39.16)" fill="none" stroke="#000" stroke-miterlimit="10" stroke-width="1"/><line x2="66.04" transform="translate(44.7 105.21)" fill="none" stroke="#000" stroke-miterlimit="10" stroke-width="1"/><line x2="73.81" transform="translate(36.93 89.67)" fill="none" stroke="#000" stroke-miterlimit="10" stroke-width="1"/><line x2="58.27" transform="translate(52.47 78.01)" fill="none" stroke="#000" stroke-miterlimit="10" stroke-width="1"/><rect width="139.86" height="104.9" transform="translate(237.01 39.16)" fill="none" stroke="#000" stroke-miterlimit="10" stroke-width="1"/><rect width="15.54" height="104.9" transform="translate(376.87 39.16)" stroke="#000" stroke-miterlimit="10" stroke-width="1"/><line y2="81.59" transform="translate(365.22 52.76)" fill="none" stroke="#000" stroke-miterlimit="10" stroke-width="1"/><line y2="81.59" transform="translate(349.68 52.76)" fill="none" stroke="#000" stroke-miterlimit="10" stroke-width="1"/><line y2="81.59" transform="translate(330.25 52.76)" fill="none" stroke="#000" stroke-miterlimit="10" stroke-width="1"/><line y2="81.59" transform="translate(314.71 52.76)" fill="none" stroke="#000" stroke-miterlimit="10" stroke-width="1"/><line y2="81.59" transform="translate(295.29 52.76)" fill="none" stroke="#000" stroke-miterlimit="10" stroke-width="1"/><line y2="81.59" transform="translate(279.75 52.76)" fill="none" stroke="#000" stroke-miterlimit="10" stroke-width="1"/><line y2="81.59" transform="translate(264.21 52.76)" fill="none" stroke="#000" stroke-miterlimit="10" stroke-width="1"/><line x2="50.5" transform="translate(60.24 62.47)" fill="none" stroke="#000" stroke-miterlimit="10" stroke-width="1"/><line x2="34.96" transform="translate(75.78 50.82)" fill="none" stroke="#000" stroke-miterlimit="10" stroke-width="1"/><line x2="38.85" transform="translate(71.89 132.4)" fill="none" stroke="#000" stroke-miterlimit="10" stroke-width="1"/><line x2="50.5" transform="translate(60.24 116.86)" fill="none" stroke="#000" stroke-miterlimit="10" stroke-width="1"/><rect width="15.54" height="104.9" transform="translate(198.16 39.16)" stroke="#000" stroke-miterlimit="10" stroke-width="1"/><path d="M392.41,144.06H237.01v11.66h8.15a8.125,8.125,0,1,0,15.63,0h11.57a8.125,8.125,0,1,0,15.63,0h50.42a8.125,8.125,0,1,0,15.63,0h11.57a8.125,8.125,0,1,0,15.63,0h11.18V144.06Z" stroke="#000" stroke-miterlimit="10" stroke-width="1"/><line x2="356" transform="translate(37.01 171.47)" fill="none" stroke="#000" stroke-miterlimit="10" stroke-width="1"/><line x2="291.39" transform="translate(71.89 179.03)" fill="none" stroke="#000" stroke-miterlimit="10" stroke-width="1"/><line x2="23.31" transform="translate(211.76 128.52)" fill="none" stroke="#000" stroke-miterlimit="10" stroke-width="1"/><line x2="23.31" transform="translate(211.76 144.06)" fill="none" stroke="#000" stroke-miterlimit="10" stroke-width="1"/><path d="M213.7,144.06H58.29v11.66h8.15a8.125,8.125,0,1,0,15.63,0H93.64a8.125,8.125,0,1,0,15.63,0h50.42a8.125,8.125,0,1,0,15.63,0h11.57a8.125,8.125,0,1,0,15.63,0H213.7V144.06Z" stroke="#000" stroke-miterlimit="10" stroke-width="1"/></g></svg>